<?xml version="1.0" encoding="utf-8"?>
<!-- Generator: Adobe Illustrator 25.1.0, SVG Export Plug-In . SVG Version: 6.00 Build 0)  -->
<svg version="1.1" xmlns="http://www.w3.org/2000/svg" xmlns:xlink="http://www.w3.org/1999/xlink" x="0px" y="0px"
	 viewBox="0 0 199 199" style="enable-background:new 0 0 199 199;" xml:space="preserve">
<style type="text/css">
	.st0{fill:#231F20;}
	.st1{fill:#F0A50F;}
	.st2{fill:none;stroke:#093461;stroke-width:3;stroke-linecap:round;stroke-miterlimit:10;stroke-dasharray:0,10.9933;}
	.st3{fill:#093461;}
	.st4{fill:#FFEA73;}
	.st5{fill:none;stroke:#392DB2;stroke-width:3;stroke-linecap:round;stroke-miterlimit:10;stroke-dasharray:0,10.9933;}
	.st6{fill:#392DB2;}
	.st7{fill:#F2F2F2;}
	.st8{fill:none;stroke:#485922;stroke-width:3;stroke-linecap:round;stroke-miterlimit:10;stroke-dasharray:0,10.9933;}
	.st9{fill:#485922;}
	.st10{display:none;fill:#231F20;}
	.st11{fill:none;stroke:#F0A50F;stroke-width:3;stroke-linecap:round;stroke-miterlimit:10;stroke-dasharray:0,10.9933;}
	.st12{fill:none;stroke:#FFF6C2;stroke-width:3;stroke-linecap:round;stroke-miterlimit:10;stroke-dasharray:0,10.9933;}
	.st13{fill:none;stroke:#F2F2F2;stroke-width:3;stroke-linecap:round;stroke-miterlimit:10;stroke-dasharray:0,10.9933;}
	.st14{fill:#242614;}
	.st15{fill:#B4BF5E;}
	.st16{fill:none;stroke:#EAF205;stroke-width:3;stroke-linecap:round;stroke-miterlimit:10;stroke-dasharray:0,10.9933;}
	.st17{fill:#EAF205;}
	.st18{fill:none;stroke:#FFFFFF;stroke-width:3;stroke-linecap:round;stroke-miterlimit:10;stroke-dasharray:0,10.9933;}
	.st19{fill:#FFFFFF;}
</style>
<g id="svg8" xmlns:cc="http://creativecommons.org/ns#" xmlns:dc="http://purl.org/dc/elements/1.1/" xmlns:rdf="http://www.w3.org/1999/02/22-rdf-syntax-ns#" xmlns:sodipodi="http://sodipodi.sourceforge.net/DTD/sodipodi-0.dtd" xmlns:svg="http://www.w3.org/2000/svg">
	<g id="Layer_2">
		<rect x="-517.5" y="-479.5" class="st0" width="199" height="199"/>
	</g>
	<g id="layer1_3_" >
		<g id="path837_4_">
			<circle class="st1" cx="-418" cy="-380" r="99.5"/>
			<circle class="st2" cx="-418" cy="-380" r="94.5"/>
		</g>
		<path id="path959_3_" class="st3" d="M-416.8-460.9c-25.3,0-45.8,20.5-45.8,45.8l0,0c0,25.3,20.5,45.8,45.8,45.8h0.1
			c12.6,0.3,22.7,10.6,22.7,23.2c0,12.7-10.1,23-22.8,23.2v22.2c25.3,0,45.8-20.5,45.8-45.8l0,0c0-25.3-20.5-45.8-45.8-45.8h-0.1
			c-12.6-0.3-22.7-10.6-22.7-23.2c0-12.7,10.1-23,22.8-23.2V-460.9z"/>
		<rect id="rect977_3_" x="-397.7" y="-420.7" class="st3" width="22.2" height="4"/>
		<rect id="rect979_3_" x="-456.3" y="-346.2" class="st3" width="22.2" height="4"/>
	</g>
</g>
<g id="Layer_6">
	<rect x="-517.5" y="-242.1" class="st0" width="199" height="199"/>
	<g id="layer1_7_" >
		<g id="path837_5_">
			<circle class="st4" cx="-418" cy="-142.6" r="99.5"/>
			<circle class="st5" cx="-418" cy="-142.6" r="94.5"/>
		</g>
		<path id="path959_7_" class="st6" d="M-416.8-223.5c-25.3,0-45.8,20.5-45.8,45.8l0,0c0,25.3,20.5,45.8,45.8,45.8h0.1
			c12.6,0.3,22.7,10.6,22.7,23.2c0,12.7-10.1,23-22.8,23.2v22.2c25.3,0,45.8-20.5,45.8-45.8l0,0c0-25.3-20.5-45.8-45.8-45.8h-0.1
			c-12.6-0.3-22.7-10.6-22.7-23.2c0-12.7,10.1-23,22.8-23.2V-223.5z"/>
		<rect id="rect977_7_" x="-397.7" y="-183.3" class="st6" width="22.2" height="4"/>
		<rect id="rect979_7_" x="-456.3" y="-108.8" class="st6" width="22.2" height="4"/>
	</g>
</g>
<g id="Layer_8">
	<rect x="-517.5" y="0" class="st0" width="199" height="199"/>
	<g id="layer1_4_" >
		<g id="path837_3_">
			<circle class="st7" cx="-418" cy="99.5" r="99.5"/>
			<circle class="st8" cx="-418" cy="99.5" r="94.5"/>
		</g>
		<path id="path959_4_" class="st9" d="M-416.8,18.6c-25.3,0-45.8,20.5-45.8,45.8l0,0c0,25.3,20.5,45.8,45.8,45.8h0.1
			c12.6,0.3,22.7,10.6,22.7,23.2c0,12.7-10.1,23-22.8,23.2v22.2c25.3,0,45.8-20.5,45.8-45.8l0,0c0-25.3-20.5-45.8-45.8-45.8h-0.1
			c-12.6-0.3-22.7-10.6-22.7-23.2c0-12.7,10.1-23,22.8-23.2V18.6z"/>
		<rect id="rect977_4_" x="-397.7" y="58.8" class="st9" width="22.2" height="4"/>
		<rect id="rect979_4_" x="-456.3" y="133.3" class="st9" width="22.2" height="4"/>
	</g>
</g>
<g id="Layer_3">
	<rect x="-274.5" y="-479.5" class="st10" width="199" height="199"/>
	<g id="layer1_5_" >
		<g id="path837_9_">
			<circle class="st3" cx="-175" cy="-380" r="99.5"/>
			<circle class="st11" cx="-175" cy="-380" r="94.5"/>
		</g>
		<path id="path959_5_" class="st1" d="M-173.8-460.9c-25.3,0-45.8,20.5-45.8,45.8l0,0c0,25.3,20.5,45.8,45.8,45.8h0.1
			c12.6,0.3,22.7,10.6,22.7,23.2c0,12.7-10.1,23-22.8,23.2v22.2c25.3,0,45.8-20.5,45.8-45.8l0,0c0-25.3-20.5-45.8-45.8-45.8h-0.1
			c-12.6-0.3-22.7-10.6-22.7-23.2c0-12.7,10.1-23,22.8-23.2V-460.9z"/>
		<rect id="rect977_5_" x="-154.7" y="-420.7" class="st1" width="22.2" height="4"/>
		<rect id="rect979_5_" x="-213.3" y="-346.2" class="st1" width="22.2" height="4"/>
	</g>
</g>
<g id="Layer_5">
	<g id="layer1_8_" >
		<g id="path837_15_">
			<circle class="st6" cx="-175" cy="-142.6" r="99.5"/>
			<circle class="st12" cx="-175" cy="-142.6" r="94.5"/>
		</g>
		<path id="path959_8_" class="st4" d="M-173.8-223.5c-25.3,0-45.8,20.5-45.8,45.8l0,0c0,25.3,20.5,45.8,45.8,45.8h0.1
			c12.6,0.3,22.7,10.6,22.7,23.2c0,12.7-10.1,23-22.8,23.2v22.2c25.3,0,45.8-20.5,45.8-45.8l0,0c0-25.3-20.5-45.8-45.8-45.8h-0.1
			c-12.6-0.3-22.7-10.6-22.7-23.2c0-12.7,10.1-23,22.8-23.2V-223.5z"/>
		<rect id="rect977_8_" x="-154.7" y="-183.3" class="st4" width="22.2" height="4"/>
		<rect id="rect979_8_" x="-213.3" y="-108.8" class="st4" width="22.2" height="4"/>
	</g>
</g>
<g id="Layer_7">
	<g id="layer1_9_" >
		<g id="path837_8_">
			<circle class="st9" cx="-175" cy="99.5" r="99.5"/>
			<circle class="st13" cx="-175" cy="99.5" r="94.5"/>
		</g>
		<path id="path959_9_" class="st7" d="M-173.8,18.6c-25.3,0-45.8,20.5-45.8,45.8l0,0c0,25.3,20.5,45.8,45.8,45.8h0.1
			c12.6,0.3,22.7,10.6,22.7,23.2c0,12.7-10.1,23-22.8,23.2v22.2c25.3,0,45.8-20.5,45.8-45.8l0,0c0-25.3-20.5-45.8-45.8-45.8h-0.1
			c-12.6-0.3-22.7-10.6-22.7-23.2c0-12.7,10.1-23,22.8-23.2V18.6z"/>
		<rect id="rect977_9_" x="-154.7" y="58.8" class="st7" width="22.2" height="4"/>
		<rect id="rect979_9_" x="-213.3" y="133.3" class="st7" width="22.2" height="4"/>
	</g>
</g>
<g id="Layer_9">
	<g id="layer1_2_" >
		<g id="path837_2_">
			<circle class="st14" cx="99.5" cy="99.5" r="99.5"/>
			<circle class="st13" cx="99.5" cy="99.5" r="94.5"/>
		</g>
		<path id="path959_2_" class="st15" d="M100.7,18.6c-25.3,0-45.8,20.5-45.8,45.8l0,0c0,25.3,20.5,45.8,45.8,45.8h0.1
			c12.6,0.3,22.7,10.6,22.7,23.2c0,12.7-10.1,23-22.8,23.2v22.2c25.3,0,45.8-20.5,45.8-45.8l0,0c0-25.3-20.5-45.8-45.8-45.8h-0.1
			C88,86.9,77.9,76.6,77.9,64c0-12.7,10.1-23,22.8-23.2V18.6z"/>
		<rect id="rect977_2_" x="119.8" y="58.8" class="st15" width="22.2" height="4"/>
		<rect id="rect979_2_" x="61.2" y="133.3" class="st15" width="22.2" height="4"/>
	</g>
</g>
<g id="Layer_10">
	<g id="layer1_1_" >
		<g id="path837_1_">
			<circle class="st0" cx="99.5" cy="-142.6" r="99.5"/>
			<circle class="st16" cx="99.5" cy="-142.6" r="94.5"/>
		</g>
		<path id="path959_1_" class="st17" d="M100.7-223.5c-25.3,0-45.8,20.5-45.8,45.8l0,0c0,25.3,20.5,45.8,45.8,45.8h0.1
			c12.6,0.3,22.7,10.6,22.7,23.2c0,12.7-10.1,23-22.8,23.2v22.2c25.3,0,45.8-20.5,45.8-45.8l0,0c0-25.3-20.5-45.8-45.8-45.8h-0.1
			c-12.6-0.3-22.7-10.6-22.7-23.2c0-12.7,10.1-23,22.8-23.2V-223.5z"/>
		<rect id="rect977_1_" x="119.8" y="-183.3" class="st17" width="22.2" height="4"/>
		<rect id="rect979_1_" x="61.2" y="-108.8" class="st17" width="22.2" height="4"/>
	</g>
</g>
<g id="Layer_4">
	<rect x="-4.7" y="-479.5" class="st10" width="199" height="199"/>
	<g id="layer1_6_" >
		<g id="path837_11_">
			<circle class="st0" cx="94.8" cy="-380" r="99.5"/>
			<circle class="st18" cx="94.8" cy="-380" r="94.5"/>
		</g>
		<path id="path959_6_" class="st19" d="M96-460.9c-25.3,0-45.8,20.5-45.8,45.8l0,0c0,25.3,20.5,45.8,45.8,45.8h0.1
			c12.6,0.3,22.7,10.6,22.7,23.2c0,12.7-10.1,23-22.8,23.2v22.2c25.3,0,45.8-20.5,45.8-45.8l0,0c0-25.3-20.5-45.8-45.8-45.8h-0.1
			c-12.6-0.3-22.7-10.6-22.7-23.2c0-12.7,10.1-23,22.8-23.2V-460.9z"/>
		<rect id="rect977_6_" x="115.1" y="-420.7" class="st19" width="22.2" height="4"/>
		<rect id="rect979_6_" x="56.5" y="-346.2" class="st19" width="22.2" height="4"/>
	</g>
</g>
</svg>
