<?xml version="1.0" encoding="utf-8"?>
<!-- Generator: Adobe Illustrator 25.1.0, SVG Export Plug-In . SVG Version: 6.00 Build 0)  -->
<svg version="1.1"
	 id="svg8" xmlns:cc="http://creativecommons.org/ns#" xmlns:dc="http://purl.org/dc/elements/1.1/" xmlns:inkscape="http://www.inkscape.org/namespaces/inkscape" xmlns:rdf="http://www.w3.org/1999/02/22-rdf-syntax-ns#" xmlns:sodipodi="http://sodipodi.sourceforge.net/DTD/sodipodi-0.dtd" xmlns:svg="http://www.w3.org/2000/svg"
	 xmlns="http://www.w3.org/2000/svg" xmlns:xlink="http://www.w3.org/1999/xlink" x="0px" y="0px" viewBox="0 0 199 199"
	 style="enable-background:new 0 0 199 199;" xml:space="preserve">
<style type="text/css">
	.st0{fill:#093461;}
	.st1{fill:#F0A50F;}
</style>
<g id="layer1" inkscape:groupmode="layer" inkscape:label="Layer 1">
	<circle id="path837" class="st0" cx="99.5" cy="99.5" r="99.5"/>
	<path id="path959" class="st1" d="M100.7,18.6c-25.3,0-45.8,20.5-45.8,45.8l0,0c0,25.3,20.5,45.8,45.8,45.8h0.1
		c12.6,0.3,22.7,10.6,22.7,23.2c0,12.7-10.1,23-22.8,23.2v22.2c25.3,0,45.8-20.5,45.8-45.8l0,0c0-25.3-20.5-45.8-45.8-45.8h-0.1
		C88,86.9,77.9,76.6,77.9,64c0-12.7,10.1-23,22.8-23.2V18.6z"/>
	<rect id="rect977" x="119.8" y="58.8" class="st1" width="22.2" height="4"/>
	<rect id="rect979" x="61.2" y="133.3" class="st1" width="22.2" height="4"/>
</g>
</svg>
