<svg xmlns="http://www.w3.org/2000/svg" viewBox="0 0 199 199"><defs><style>.cls-1{fill:#f0a50f;}.cls-2{fill:none;stroke:#093461;stroke-linecap:round;stroke-miterlimit:10;stroke-width:3px;}.cls-3{fill:#093461;}</style></defs><g id="Layer_10" data-name="Layer 10"><g id="svg8"><g id="layer1"><g id="path837"><circle class="cls-1" cx="99.5" cy="99.5" r="99.5"/><circle class="cls-2" cx="99.5" cy="99.5" r="94.5"/></g><path id="path959" class="cls-3" d="M100.7,18.6A45.79,45.79,0,0,0,54.9,64.4h0a45.79,45.79,0,0,0,45.8,45.8h.1a23.2,23.2,0,0,1-.1,46.4v22.2A45.79,45.79,0,0,0,146.5,133h0a45.79,45.79,0,0,0-45.8-45.8h-.1a23.2,23.2,0,0,1,.1-46.4Z"/><rect id="rect977" class="cls-3" x="119.8" y="58.8" width="22.2" height="4"/><rect id="rect979" class="cls-3" x="61.2" y="133.3" width="22.2" height="4"/></g></g></g></svg>